<svg width="49" height="51" viewBox="0 0 49 51" fill="none" xmlns="http://www.w3.org/2000/svg">
<g id="Group 79">
<path id="Vector 96 (Stroke)" fill-rule="evenodd" clip-rule="evenodd" d="M21.466 24.1895C16.2567 29.3859 11.4413 34.4563 9.30306 37.3829L7.76465 36.2572C10.0061 33.1894 14.9322 28.0143 20.1205 22.8387C25.3291 17.6431 30.8645 12.3859 34.3732 9.13025L35.669 10.5288C32.1734 13.7723 26.655 19.0133 21.466 24.1895Z" fill="black"/>
<path id="Vector 92" d="M0 31.9858L0 17.564L12.6398 11.6825V5.63981L23.2669 0L35.1821 5.63981V11.6825L48.788 17.564V31.9858L35.1821 38.1896V45.0379L23.2669 51L12.6398 45.0379V38.1896L0 31.9858Z" fill="#6B1A91"/>
<path id="Vector 93 (Stroke)" fill-rule="evenodd" clip-rule="evenodd" d="M41.8409 6.3165C40.0375 7.36225 37.5175 9.14496 35.5938 10.5918L34.4488 9.06717C36.6089 7.44254 39.6295 5.30963 41.583 4.27874C42.0688 4.02239 42.5416 3.80529 42.9442 3.6914C43.1398 3.63606 43.3885 3.5843 43.6458 3.60132C43.9097 3.61878 44.3318 3.72583 44.597 4.14152C44.8373 4.51814 44.7938 4.91636 44.7445 5.13933C44.6904 5.38349 44.5835 5.62672 44.4627 5.85396C44.2178 6.31446 43.8147 6.8939 43.256 7.60104C41.0229 10.4273 34.6677 16.9595 27.6917 23.9233C20.6931 30.9097 13.0083 38.3907 8.06754 43.1471L7.94138 43.2685L7.78033 43.3372C7.36604 43.5137 6.80222 43.687 6.25788 43.6307C5.96836 43.6008 5.62253 43.4987 5.33032 43.2324C5.02806 42.9569 4.87993 42.594 4.838 42.228C4.76244 41.5685 5.01463 40.7795 5.45241 39.8941C5.91054 38.9674 6.6539 37.7777 7.76484 36.2572L9.30325 37.3829C8.22437 38.8595 7.55078 39.9505 7.16055 40.7398C6.9494 41.1669 6.83955 41.4702 6.78387 41.6746C6.81474 41.6651 6.84745 41.6543 6.88195 41.642C11.8211 36.8857 19.4211 29.4856 26.3458 22.5731C33.3568 15.5743 39.6145 9.13498 41.7611 6.41812C41.7882 6.38372 41.8149 6.34985 41.8409 6.3165Z" fill="black"/>
</g>
</svg>
