<svg width="111" height="19" viewBox="0 0 111 19" fill="none" xmlns="http://www.w3.org/2000/svg">
<g id="OfficeWiz">
<path id="Vector" d="M99.2004 18.1391V16.3988L107.252 7.14879C106.339 7.19647 105.533 7.22031 104.834 7.22031H99.6769V5.47998H110.016V6.89847L103.167 14.9326L101.845 16.3988C102.806 16.3273 103.707 16.2915 104.549 16.2915H110.397V18.1391H99.2004Z" fill="black"/>
<path id="Vector_2" d="M93.9365 3.13176V0.664307H96.0805V3.13176H93.9365ZM93.9365 18.1391V5.48002H96.0805V18.1391H93.9365Z" fill="black"/>
<path id="Vector_3" d="M73.236 18.1391L68.6025 0.664307H70.9729L73.629 12.1195C73.9149 13.3195 74.1611 14.5115 74.3675 15.6955C74.8122 13.828 75.0743 12.7513 75.1537 12.4652L78.4769 0.664307H81.2641L83.7654 9.50901C84.3927 11.7023 84.8454 13.7645 85.1233 15.6955C85.3456 14.5909 85.6355 13.3234 85.9928 11.893L88.7324 0.664307H91.055L86.2667 18.1391H84.0394L80.3588 4.82441C80.0491 3.71187 79.8665 3.02846 79.8109 2.77416C79.6283 3.57678 79.4576 4.2602 79.2987 4.82441L75.5944 18.1391H73.236Z" fill="black"/>
<path id="Vector_4" d="M64.0176 14.0625L66.2331 14.3367C65.8837 15.632 65.2365 16.6372 64.2916 17.3525C63.3466 18.0677 62.1396 18.4253 60.6706 18.4253C58.8204 18.4253 57.3514 17.8571 56.2635 16.7207C55.1835 15.5764 54.6436 13.9751 54.6436 11.9169C54.6436 9.78717 55.1915 8.13426 56.2873 6.95814C57.3831 5.78203 58.8045 5.19397 60.5515 5.19397C62.2429 5.19397 63.6246 5.77011 64.6966 6.92238C65.7686 8.07466 66.3046 9.69579 66.3046 11.7858C66.3046 11.9129 66.3006 12.1036 66.2926 12.3579H56.859C56.9384 13.7486 57.3315 14.8135 58.0382 15.5525C58.745 16.2916 59.6264 16.6611 60.6825 16.6611C61.4686 16.6611 62.1396 16.4545 62.6955 16.0412C63.2513 15.628 63.692 14.9684 64.0176 14.0625ZM56.9781 10.5938H64.0414C63.9462 9.52891 63.6762 8.73026 63.2315 8.19783C62.5486 7.37137 61.6632 6.95814 60.5753 6.95814C59.5906 6.95814 58.7608 7.28793 58.0859 7.94751C57.4188 8.60709 57.0496 9.48917 56.9781 10.5938Z" fill="black"/>
<path id="Vector_5" d="M50.44 13.5023L52.5483 13.7764C52.318 15.2307 51.7264 16.371 50.7736 17.1975C49.8286 18.016 48.6653 18.4253 47.2836 18.4253C45.5525 18.4253 44.1589 17.861 43.1028 16.7326C42.0546 15.5962 41.5305 13.9711 41.5305 11.8573C41.5305 10.4905 41.7568 9.29448 42.2095 8.26935C42.6621 7.24422 43.349 6.47737 44.2701 5.96877C45.1991 5.45224 46.2076 5.19397 47.2955 5.19397C48.6693 5.19397 49.7929 5.54363 50.6664 6.24294C51.5398 6.9343 52.0997 7.91969 52.3458 9.19912L50.2614 9.52096C50.0629 8.67066 49.7095 8.03095 49.2013 7.60183C48.701 7.1727 48.0936 6.95814 47.3789 6.95814C46.2989 6.95814 45.4215 7.34753 44.7465 8.12631C44.0716 8.89714 43.7341 10.1209 43.7341 11.7977C43.7341 13.4983 44.0596 14.734 44.7108 15.5048C45.3619 16.2757 46.2116 16.6611 47.2598 16.6611C48.1015 16.6611 48.8042 16.4028 49.368 15.8863C49.9318 15.3697 50.2892 14.5751 50.44 13.5023Z" fill="black"/>
<path id="Vector_6" d="M35.7903 3.13176V0.664307H37.9343V3.13176H35.7903ZM35.7903 18.1391V5.48002H37.9343V18.1391H35.7903Z" fill="black"/>
<path id="Vector_7" d="M28.5255 18.1392V7.14886H26.6316V5.48005H28.5255V4.13308C28.5255 3.28278 28.6009 2.65102 28.7518 2.23779C28.9582 1.68152 29.3195 1.23253 29.8357 0.890817C30.3598 0.541161 31.0903 0.366333 32.0273 0.366333C32.6308 0.366333 33.2979 0.437853 34.0284 0.580894L33.7068 2.45235C33.2621 2.37288 32.8413 2.33315 32.4442 2.33315C31.7931 2.33315 31.3325 2.47221 31.0625 2.75035C30.7925 3.02848 30.6576 3.54899 30.6576 4.31188V5.48005H33.1232V7.14886H30.6576V18.1392H28.5255Z" fill="black"/>
<path id="Vector_8" d="M21.213 18.1392V7.14886H19.3191V5.48005H21.213V4.13308C21.213 3.28278 21.2884 2.65102 21.4393 2.23779C21.6457 1.68152 22.007 1.23253 22.5232 0.890817C23.0473 0.541161 23.7778 0.366333 24.7148 0.366333C25.3183 0.366333 25.9854 0.437853 26.7159 0.580894L26.3943 2.45235C25.9496 2.37288 25.5288 2.33315 25.1317 2.33315C24.4806 2.33315 24.02 2.47221 23.75 2.75035C23.48 3.02848 23.3451 3.54899 23.3451 4.31188V5.48005H25.8107V7.14886H23.3451V18.1392H21.213Z" fill="black"/>
<path id="Vector_9" d="M0.309814 9.62819C0.309814 6.72764 1.08801 4.45885 2.6444 2.82183C4.20078 1.17686 6.2098 0.35437 8.67143 0.35437C10.2834 0.35437 11.7366 0.739786 13.0309 1.51062C14.3252 2.28145 15.3099 3.35823 15.9849 4.74096C16.6678 6.11574 17.0092 7.67727 17.0092 9.42555C17.0092 11.1977 16.6519 12.783 15.9372 14.1817C15.2226 15.5803 14.2101 16.6412 12.8999 17.3643C11.5897 18.0795 10.1762 18.4371 8.65952 18.4371C7.01578 18.4371 5.54674 18.0398 4.2524 17.2451C2.95806 16.4504 1.97737 15.3657 1.31035 13.9909C0.643326 12.6162 0.309814 11.1619 0.309814 9.62819ZM2.69204 9.66395C2.69204 11.7698 3.25583 13.4307 4.38342 14.6465C5.51895 15.8544 6.94035 16.4584 8.64761 16.4584C10.3866 16.4584 11.816 15.8465 12.9356 14.6227C14.0632 13.3989 14.627 11.6626 14.627 9.41363C14.627 7.99117 14.3848 6.75148 13.9004 5.69456C13.424 4.6297 12.7212 3.80722 11.7921 3.22711C10.871 2.63905 9.83475 2.34502 8.68334 2.34502C7.04755 2.34502 5.63806 2.90924 4.45489 4.03767C3.27966 5.15816 2.69204 7.03359 2.69204 9.66395Z" fill="black"/>
</g>
</svg>
